<svg width="24" height="16" viewBox="0 0 24 16" fill="none" xmlns="http://www.w3.org/2000/svg">
<path d="M22.7044 7.16318L15.8547 0.31344C15.4367 -0.10448 14.759 -0.10448 14.341 0.31344C13.923 0.731445 13.923 1.40906 14.341 1.82706L19.3637 6.84972H1.07027C0.479225 6.84972 0 7.32894 0 7.91999C0 8.51095 0.479225 8.99026 1.07027 8.99026H19.3637L14.3412 14.0129C13.9232 14.4309 13.9232 15.1085 14.3412 15.5265C14.5501 15.7354 14.8241 15.84 15.098 15.84C15.3719 15.84 15.6458 15.7354 15.8548 15.5265L22.7044 8.6768C23.1224 8.25879 23.1224 7.58118 22.7044 7.16318Z" fill="white" fill-opacity="0.2"/>
</svg>
