<svg width="29" height="20" viewBox="0 0 29 20" fill="none" xmlns="http://www.w3.org/2000/svg">
<path d="M28.4373 8.97191L19.858 0.392584C19.3346 -0.130861 18.4856 -0.130861 17.9622 0.392584C17.4386 0.916137 17.4386 1.76485 17.9622 2.2884L24.2531 8.57929H1.34052C0.600231 8.57929 0 9.17952 0 9.91981C0 10.66 0.600231 11.2603 1.34052 11.2603H24.2531L17.9624 17.5512C17.4389 18.0748 17.4389 18.9235 17.9624 19.447C18.2241 19.7086 18.5673 19.8397 18.9103 19.8397C19.2534 19.8397 19.5965 19.7086 19.8582 19.447L28.4373 10.8677C28.9609 10.3442 28.9609 9.49546 28.4373 8.97191Z" fill="#0BBEF2"/>
</svg>
