<svg width="29" height="20" viewBox="0 0 29 20" fill="none" xmlns="http://www.w3.org/2000/svg">
<path d="M0.392742 8.97191L8.97206 0.392584C9.49551 -0.130861 10.3444 -0.130861 10.8679 0.392584C11.3914 0.916137 11.3914 1.76485 10.8679 2.2884L4.57698 8.57929H27.4896C28.2298 8.57929 28.8301 9.17952 28.8301 9.91981C28.8301 10.66 28.2298 11.2603 27.4896 11.2603H4.57698L10.8677 17.5512C11.3912 18.0748 11.3912 18.9235 10.8677 19.447C10.606 19.7086 10.2628 19.8397 9.91975 19.8397C9.57669 19.8397 9.23362 19.7086 8.97185 19.447L0.392742 10.8677C-0.13081 10.3442 -0.13081 9.49546 0.392742 8.97191Z" fill="#0BBEF2"/>
</svg>
