<svg width="69" height="20" viewBox="0 0 69 20" fill="none" xmlns="http://www.w3.org/2000/svg">
<path d="M6.63 19.3C5.31 19.3 4.31 18.92 3.63 18.16C2.95 17.38 2.61 16.45 2.61 15.37V7.06H0.48L0.81 4H2.61V0.7L6.33 0.309999V4H9.63V7.06H6.33V13.84C6.33 14.64 6.37 15.2 6.45 15.52C6.55 15.82 6.74 16.02 7.02 16.12C7.32 16.2 7.85 16.24 8.61 16.24H9.63L9.3 19.3H6.63ZM18.3825 19.3C16.6425 19.3 15.1525 18.95 13.9125 18.25C12.6925 17.53 11.7725 16.58 11.1525 15.4C10.5525 14.2 10.2525 12.87 10.2525 11.41C10.2525 10.01 10.5425 8.73 11.1225 7.57C11.7025 6.41 12.5425 5.49 13.6425 4.81C14.7425 4.11 16.0525 3.76 17.5725 3.76C18.9725 3.76 20.1525 4.05 21.1125 4.63C22.0925 5.21 22.8225 5.99 23.3025 6.97C23.8025 7.95 24.0525 9.05 24.0525 10.27C24.0525 10.87 23.9725 11.55 23.8125 12.31H14.1225C14.3225 13.63 14.8425 14.62 15.6825 15.28C16.5225 15.92 17.5325 16.24 18.7125 16.24C20.3325 16.24 21.8325 15.83 23.2125 15.01L23.3925 18.16C22.7525 18.5 22.0025 18.78 21.1425 19C20.3025 19.2 19.3825 19.3 18.3825 19.3ZM20.2725 9.79C20.2725 9.01 20.0525 8.32 19.6125 7.72C19.1725 7.12 18.4925 6.82 17.5725 6.82C16.6525 6.82 15.9125 7.09 15.3525 7.63C14.7925 8.17 14.4125 8.89 14.2125 9.79H20.2725ZM28.932 19.3C27.692 19.3 26.652 18.9 25.812 18.1C24.992 17.28 24.582 16.18 24.582 14.8C24.582 13.5 25.052 12.46 25.992 11.68C26.932 10.88 28.042 10.32 29.322 10C30.602 9.66 31.832 9.47 33.012 9.43C32.972 8.55 32.742 7.92 32.322 7.54C31.922 7.16 31.252 6.97 30.312 6.97C29.652 6.97 29.002 7.06 28.362 7.24C27.742 7.42 27.022 7.71 26.202 8.11L25.872 5.08C27.692 4.2 29.512 3.76 31.332 3.76C33.092 3.76 34.432 4.24 35.352 5.2C36.292 6.16 36.762 7.69 36.762 9.79V13.84C36.762 14.6 36.792 15.15 36.852 15.49C36.932 15.81 37.052 16.02 37.212 16.12C37.392 16.2 37.682 16.24 38.082 16.24H38.562L38.232 19.3H36.882C36.062 19.3 35.372 19.15 34.812 18.85C34.252 18.53 33.822 18.1 33.522 17.56C33.042 18.1 32.382 18.53 31.542 18.85C30.722 19.15 29.852 19.3 28.932 19.3ZM30.492 16.45C30.872 16.45 31.302 16.36 31.782 16.18C32.262 15.98 32.682 15.71 33.042 15.37V11.95C31.842 12.01 30.782 12.27 29.862 12.73C28.942 13.19 28.482 13.83 28.482 14.65C28.482 15.27 28.642 15.73 28.962 16.03C29.282 16.31 29.792 16.45 30.492 16.45ZM56.5634 3.76C58.5634 3.76 60.0434 4.37 61.0034 5.59C61.9834 6.79 62.4734 8.48 62.4734 10.66V19H58.7534V10.93C58.7534 9.51 58.5334 8.47 58.0934 7.81C57.6534 7.15 56.9334 6.82 55.9334 6.82C54.9534 6.82 54.2134 7.16 53.7134 7.84C53.2134 8.5 52.9634 9.44 52.9634 10.66V19H49.2434V10.93C49.2434 9.51 49.0134 8.47 48.5534 7.81C48.0934 7.15 47.3634 6.82 46.3634 6.82C45.1834 6.82 44.2134 7.25 43.4534 8.11V19H39.7334V4H42.9134L43.0334 5.2C44.3934 4.24 45.8634 3.76 47.4434 3.76C49.3634 3.76 50.7934 4.45 51.7334 5.83C52.2534 5.17 52.9334 4.66 53.7734 4.3C54.6134 3.94 55.5434 3.76 56.5634 3.76Z" fill="#324162"/>
<path d="M64.5476 14.92H68.4476V19H64.5476V14.92Z" fill="#0BBEF2"/>
</svg>
