<svg width="15" height="15" viewBox="0 0 15 15" fill="none" xmlns="http://www.w3.org/2000/svg">
<path d="M8.2244 0.777996L9.9162 4.20603C10.0338 4.44445 10.2613 4.60966 10.5245 4.64783L14.3076 5.19758C14.9703 5.29395 15.2347 6.1081 14.7554 6.57524L12.0179 9.24358C11.8277 9.42912 11.7407 9.69664 11.7857 9.95853L12.4318 13.7264C12.5451 14.3863 11.8524 14.8894 11.2598 14.5781L7.87615 12.7993C7.64085 12.6757 7.35956 12.6757 7.12427 12.7993L3.74067 14.5781C3.14805 14.8897 2.45531 14.3863 2.56858 13.7264L3.2147 9.95853C3.25975 9.69664 3.17277 9.42912 2.98253 9.24358L0.245047 6.57524C-0.234302 6.10778 0.030091 5.29364 0.692794 5.19758L4.47596 4.64783C4.7391 4.60966 4.96657 4.44445 5.08422 4.20603L6.77602 0.777996C7.07202 0.177558 7.92809 0.177558 8.2244 0.777996Z" fill="#FFB300"/>
</svg>
